<svg id="visual" viewBox="0 0 900 600" width="900" height="600" xmlns="http://www.w3.org/2000/svg" xmlns:xlink="http://www.w3.org/1999/xlink" version="1.1"><rect x="0" y="0" width="900" height="600" fill="#001220"></rect><path d="M0 165L21.5 163C43 161 86 157 128.8 169.7C171.7 182.3 214.3 211.7 257.2 218C300 224.3 343 207.7 385.8 200.5C428.7 193.3 471.3 195.7 514.2 201.8C557 208 600 218 642.8 218.3C685.7 218.7 728.3 209.3 771.2 201.3C814 193.3 857 186.7 878.5 183.3L900 180L900 0L878.5 0C857 0 814 0 771.2 0C728.3 0 685.7 0 642.8 0C600 0 557 0 514.2 0C471.3 0 428.7 0 385.8 0C343 0 300 0 257.2 0C214.3 0 171.7 0 128.8 0C86 0 43 0 21.5 0L0 0Z" fill="#8ea5fa"></path><path d="M0 127L21.5 127.3C43 127.7 86 128.3 128.8 140C171.7 151.7 214.3 174.3 257.2 183C300 191.7 343 186.3 385.8 185.5C428.7 184.7 471.3 188.3 514.2 189.5C557 190.7 600 189.3 642.8 179C685.7 168.7 728.3 149.3 771.2 137.8C814 126.3 857 122.7 878.5 120.8L900 119L900 0L878.5 0C857 0 814 0 771.2 0C728.3 0 685.7 0 642.8 0C600 0 557 0 514.2 0C471.3 0 428.7 0 385.8 0C343 0 300 0 257.2 0C214.3 0 171.7 0 128.8 0C86 0 43 0 21.5 0L0 0Z" fill="#adbbfc"></path><path d="M0 111L21.5 111.2C43 111.3 86 111.7 128.8 111.3C171.7 111 214.3 110 257.2 115C300 120 343 131 385.8 131.2C428.7 131.3 471.3 120.7 514.2 118.5C557 116.3 600 122.7 642.8 121.2C685.7 119.7 728.3 110.3 771.2 104C814 97.7 857 94.3 878.5 92.7L900 91L900 0L878.5 0C857 0 814 0 771.2 0C728.3 0 685.7 0 642.8 0C600 0 557 0 514.2 0C471.3 0 428.7 0 385.8 0C343 0 300 0 257.2 0C214.3 0 171.7 0 128.8 0C86 0 43 0 21.5 0L0 0Z" fill="#cad1fd"></path><path d="M0 75L21.5 76.2C43 77.3 86 79.7 128.8 82.3C171.7 85 214.3 88 257.2 92C300 96 343 101 385.8 100.2C428.7 99.3 471.3 92.7 514.2 89.5C557 86.3 600 86.7 642.8 86.2C685.7 85.7 728.3 84.3 771.2 89.2C814 94 857 105 878.5 110.5L900 116L900 0L878.5 0C857 0 814 0 771.2 0C728.3 0 685.7 0 642.8 0C600 0 557 0 514.2 0C471.3 0 428.7 0 385.8 0C343 0 300 0 257.2 0C214.3 0 171.7 0 128.8 0C86 0 43 0 21.5 0L0 0Z" fill="#e5e8fe"></path><path d="M0 24L21.5 28.2C43 32.3 86 40.7 128.8 46.3C171.7 52 214.3 55 257.2 55.2C300 55.3 343 52.7 385.8 50.7C428.7 48.7 471.3 47.3 514.2 51.2C557 55 600 64 642.8 66.8C685.7 69.7 728.3 66.3 771.2 65.2C814 64 857 65 878.5 65.5L900 66L900 0L878.5 0C857 0 814 0 771.2 0C728.3 0 685.7 0 642.8 0C600 0 557 0 514.2 0C471.3 0 428.7 0 385.8 0C343 0 300 0 257.2 0C214.3 0 171.7 0 128.8 0C86 0 43 0 21.5 0L0 0Z" fill="#ffffff"></path></svg>